<?xml version="1.0" encoding="UTF-8"?>
<svg id="Layer_1" data-name="Layer 1" xmlns="http://www.w3.org/2000/svg" viewBox="0 0 160 24.97">
  <defs>
    <style>
      .cls-1 {
        fill: #e05275;
        stroke-width: 0px;
      }
    </style>
  </defs>
  <g>
    <path class="cls-1" d="M28.14,4.6s-.07,0-.11,0c-1.06-2.7-3.68-4.6-6.76-4.6-2.81,0-5.26,1.6-6.46,3.95-1.2-2.34-3.64-3.95-6.46-3.95C5,0,2.17,2.29,1.34,5.4c-.16.59-.24,1.22-.24,1.86h0c0,.25.02.5.05.75.49,3.67,4.44,7.16,7.96,9.59.57.39,1.13.76,1.66,1.09.67.42,1.3.8,1.85,1.11-.56.08-1.1.22-1.61.41-.54.21-1.05.48-1.52.8-1.36.94-2.38,2.33-2.85,3.95l2.93-1.43,3.25-1.59,1.98-.97.05-.03c.16-.08.66-.33,1.38-.72,1.46-.8,3.84-2.2,6.11-3.97,1.34-1.04,2.64-2.21,3.7-3.46,1.11-1.31,1.95-2.7,2.3-4.14,1.28-1.15,2.98-1.85,4.84-1.85.05,0,.09,0,.14,0-1.32-1.36-3.16-2.2-5.2-2.2ZM28.74,5.47h0s0,0,0,0h0Z"/>
    <path class="cls-1" d="M9.87,19.59c-.2.17-.41.32-.63.47-1.15.76-2.52,1.2-4,1.2-1.02,0-1.98-.21-2.86-.59,1.26-1.04,2.87-1.67,4.63-1.67.65,0,1.28.09,1.88.25.34.09.66.2.98.34Z"/>
    <path class="cls-1" d="M8.12,18.03c-.75.26-1.56.41-2.4.41-2.32,0-4.39-1.09-5.72-2.79.75-.26,1.56-.41,2.4-.41,2.32,0,4.39,1.09,5.72,2.79Z"/>
  </g>
  <g>
    <path class="cls-1" d="M44.75,5.95v2.56h-7.41v-2.56h7.41ZM39.06,2.97h3.35v11.82c0,.4.09.69.26.88s.47.29.88.29c.13,0,.31-.02.54-.05s.41-.07.53-.1l.48,2.52c-.37.11-.74.19-1.11.23s-.72.07-1.06.07c-1.25,0-2.21-.31-2.87-.92s-1-1.49-1-2.63V2.97Z"/>
    <path class="cls-1" d="M50,18.45l-3.69-12.5h3.52l1.08,4.62c.19.83.39,1.73.6,2.7s.41,2.05.59,3.23h-.38c.19-1.15.41-2.21.64-3.19s.45-1.89.65-2.73l1.14-4.62h3.09l1.12,4.62c.19.84.4,1.75.63,2.72s.45,2.04.65,3.2h-.38c.18-1.16.37-2.22.58-3.19s.4-1.88.6-2.73l1.08-4.62h3.57l-3.71,12.5h-3.41l-1.39-4.82c-.13-.48-.27-1.02-.4-1.6s-.26-1.18-.39-1.79-.26-1.18-.39-1.71h.59c-.13.53-.25,1.1-.38,1.71s-.26,1.21-.4,1.79-.27,1.12-.4,1.6l-1.39,4.82h-3.41Z"/>
    <path class="cls-1" d="M72.19,18.69c-1.27,0-2.37-.26-3.3-.78s-1.63-1.26-2.13-2.22-.74-2.1-.74-3.42.25-2.42.74-3.39,1.19-1.73,2.09-2.27,1.96-.82,3.18-.82c.82,0,1.58.13,2.29.39s1.33.65,1.87,1.18.96,1.18,1.26,1.97.45,1.72.45,2.8v.94h-10.5v-2.1h8.85l-1.57.56c0-.65-.1-1.21-.3-1.69s-.49-.85-.88-1.12-.87-.4-1.45-.4-1.08.13-1.48.4-.71.63-.92,1.09-.31.98-.31,1.57v1.49c0,.72.12,1.33.36,1.82s.58.86,1.02,1.11.94.37,1.53.37c.4,0,.75-.06,1.07-.17s.59-.28.82-.5.4-.49.52-.81l3.04.57c-.2.69-.55,1.29-1.05,1.81s-1.12.92-1.87,1.2-1.61.42-2.59.42Z"/>
    <path class="cls-1" d="M85.83,18.69c-1.27,0-2.37-.26-3.3-.78s-1.63-1.26-2.13-2.22-.74-2.1-.74-3.42.25-2.42.74-3.39,1.19-1.73,2.09-2.27,1.96-.82,3.18-.82c.82,0,1.58.13,2.29.39s1.33.65,1.87,1.18.96,1.18,1.26,1.97.45,1.72.45,2.8v.94h-10.5v-2.1h8.85l-1.57.56c0-.65-.1-1.21-.3-1.69s-.49-.85-.88-1.12-.87-.4-1.45-.4-1.08.13-1.48.4-.71.63-.92,1.09-.31.98-.31,1.57v1.49c0,.72.12,1.33.36,1.82s.58.86,1.02,1.11.94.37,1.53.37c.4,0,.75-.06,1.07-.17s.59-.28.82-.5.4-.49.52-.81l3.04.57c-.2.69-.55,1.29-1.05,1.81s-1.12.92-1.87,1.2-1.61.42-2.59.42Z"/>
    <path class="cls-1" d="M100.03,5.95v2.56h-7.41v-2.56h7.41ZM94.34,2.97h3.35v11.82c0,.4.09.69.26.88s.47.29.88.29c.13,0,.31-.02.54-.05s.41-.07.53-.1l.48,2.52c-.37.11-.74.19-1.11.23s-.72.07-1.06.07c-1.25,0-2.21-.31-2.87-.92s-1-1.49-1-2.63V2.97Z"/>
    <path class="cls-1" d="M105.62,11.21v7.23h-3.35V1.79h3.29v7.28h-.27c.33-1.04.83-1.85,1.49-2.42s1.53-.86,2.59-.86c.86,0,1.62.19,2.26.56s1.15.92,1.5,1.62.54,1.54.54,2.52v7.95h-3.37v-7.37c0-.78-.2-1.38-.6-1.82s-.95-.66-1.66-.66c-.47,0-.89.1-1.26.31s-.66.5-.86.89-.31.86-.31,1.42Z"/>
    <path class="cls-1" d="M122.17,18.69c-1.27,0-2.37-.26-3.3-.78s-1.63-1.26-2.13-2.22-.74-2.1-.74-3.42.25-2.42.74-3.39c.49-.97,1.19-1.73,2.09-2.27s1.96-.82,3.18-.82c.82,0,1.58.13,2.29.39s1.33.65,1.87,1.18.96,1.18,1.26,1.97.45,1.72.45,2.8v.94h-10.5v-2.1h8.85l-1.57.56c0-.65-.1-1.21-.3-1.69s-.49-.85-.88-1.12-.87-.4-1.45-.4-1.08.13-1.48.4-.71.63-.92,1.09-.31.98-.31,1.57v1.49c0,.72.12,1.33.36,1.82s.58.86,1.02,1.11.94.37,1.53.37c.4,0,.75-.06,1.07-.17s.59-.28.82-.5.4-.49.52-.81l3.04.57c-.2.69-.55,1.29-1.05,1.81s-1.12.92-1.87,1.2-1.61.42-2.59.42Z"/>
    <path class="cls-1" d="M133.87,18.69c-.79,0-1.5-.14-2.13-.42s-1.13-.7-1.49-1.25-.54-1.25-.54-2.07c0-.69.13-1.27.39-1.74s.61-.85,1.05-1.13.95-.5,1.51-.65,1.15-.25,1.77-.31c.72-.07,1.31-.14,1.75-.21s.77-.16.97-.3.31-.34.31-.61v-.06c0-.36-.07-.66-.22-.91s-.37-.43-.67-.56-.65-.2-1.07-.2-.81.07-1.13.2-.58.3-.78.52-.35.46-.45.73l-3.07-.5c.22-.73.57-1.35,1.07-1.86s1.12-.89,1.86-1.16,1.58-.4,2.51-.4c.67,0,1.32.08,1.96.24s1.2.41,1.71.74.9.77,1.2,1.31.44,1.19.44,1.94v8.42h-3.18v-1.73h-.11c-.2.39-.47.73-.8,1.02s-.74.53-1.21.7-1.02.26-1.64.26ZM134.82,16.33c.53,0,.99-.1,1.39-.31s.71-.49.93-.85.34-.76.34-1.2v-1.35c-.1.07-.25.14-.45.2s-.42.11-.67.16-.49.09-.73.12-.45.07-.64.09c-.41.06-.77.16-1.08.29s-.56.31-.73.53-.26.5-.26.84c0,.32.08.59.25.81s.39.39.67.5.61.17.97.17Z"/>
    <path class="cls-1" d="M143.68,18.45V5.95h3.24v2.18h.13c.23-.78.62-1.36,1.16-1.76s1.16-.59,1.86-.59c.17,0,.36,0,.56.03s.38.05.53.08v3c-.15-.05-.37-.09-.65-.12s-.55-.04-.8-.04c-.51,0-.97.11-1.38.33s-.73.53-.96.92-.34.85-.34,1.37v7.11h-3.35Z"/>
    <path class="cls-1" d="M159.65,5.95v2.56h-7.41v-2.56h7.41ZM153.96,2.97h3.35v11.82c0,.4.09.69.26.88s.47.29.88.29c.13,0,.31-.02.54-.05s.41-.07.53-.1l.48,2.52c-.37.11-.74.19-1.11.23s-.72.07-1.06.07c-1.25,0-2.21-.31-2.87-.92s-1-1.49-1-2.63V2.97Z"/>
  </g>
</svg>