<?xml version="1.0" encoding="utf-8"?>
<!-- Generator: Adobe Illustrator 28.2.0, SVG Export Plug-In . SVG Version: 6.00 Build 0)  -->
<svg version="1.1" id="Layer_1" xmlns="http://www.w3.org/2000/svg" xmlns:xlink="http://www.w3.org/1999/xlink" x="0px" y="0px"
	 viewBox="0 0 32 32" style="enable-background:new 0 0 32 32;" xml:space="preserve">
<style type="text/css">
	.st0{fill:#FFFFFF;}
</style>
<g>
	<path class="st0" d="M27.3,4.7C27.3,4.7,27.3,4.7,27.3,4.7L27.3,4.7L24,8h-8c-2.2,0-4.1,0.9-5.6,2.3c0,0,0,0,0,0c0,0,0,0,0,0
		c0,0,0,0,0,0c0,0,0,0,0,0C8.9,11.9,8,13.8,8,16v8H0v-8c0-1.4,0.2-2.8,0.5-4.1C0.9,10.5,1.4,9.2,2.1,8c0.7-1.2,1.5-2.3,2.5-3.3l0,0
		l0,0c1-1,2.1-1.8,3.3-2.5c1.2-0.7,2.5-1.2,3.9-1.6C13.2,0.2,14.6,0,16,0h16L27.3,4.7z"/>
	<path class="st0" d="M24,8l-2.3,2.3v0L16,16h8c0,2.2-0.9,4.2-2.3,5.6c0,0,0,0,0,0s0,0,0,0C20.2,23.1,18.2,24,16,24H8l-3.3,3.3h0
		L0,32h16c1.4,0,2.8-0.2,4.1-0.5c1.4-0.4,2.7-0.9,3.9-1.6c1.2-0.7,2.3-1.5,3.3-2.5c0,0,0,0,0,0c0,0,0,0,0,0c1-1,1.8-2.1,2.5-3.3
		c0.7-1.2,1.2-2.5,1.6-3.9c0.4-1.3,0.5-2.7,0.5-4.1V8H24z"/>
</g>
</svg>
