<?xml version="1.0" encoding="UTF-8"?>
<svg id="Layer_1" data-name="Layer 1" xmlns="http://www.w3.org/2000/svg" viewBox="0 0 1136.34 859.06">
  <defs>
    <style>
      .cls-1 {
        fill: #e05275;
        stroke-width: 0px;
      }
    </style>
  </defs>
  <path class="cls-1" d="M826.72,115.64c-.89,0-1.79,0-2.69.02C797.56,48.24,731.89.5,655.07.5c-70.4,0-131.43,40.08-161.51,98.67C463.47,40.58,402.44.5,332.05.5c-84.14,0-154.9,57.26-175.44,134.95-3.93,14.85-6.02,30.43-6.02,46.51v.02c0,6.29.44,12.57,1.27,18.83,12.24,91.8,110.95,179,199.16,239.79,14.27,9.84,28.28,18.99,41.59,27.35,16.83,10.57,32.56,19.89,46.36,27.77-14,1.91-27.5,5.42-40.29,10.35-13.49,5.18-26.21,11.94-37.92,20.04-33.96,23.47-59.53,58.22-71.28,98.83l73.28-35.89,81.34-39.84,49.49-24.23,1.31-.64c3.92-1.93,16.44-8.19,34.49-18.09,36.6-20.06,96-55.08,152.85-99.35,33.41-26.02,65.94-55.24,92.46-86.49,27.74-32.7,48.88-67.62,57.54-103.45,32.13-28.84,74.6-46.39,121.16-46.39,1.14,0,2.28,0,3.41.04-32.97-33.9-79.07-54.96-130.09-54.96ZM841.68,137.23v-.02h.02l-.02.02Z"/>
  <path class="cls-1" d="M369.87,490.47c-5.05,4.2-10.33,8.13-15.83,11.76-28.67,18.97-63.04,30.02-100,30.02-25.42,0-49.61-5.22-71.57-14.66,31.42-26.09,71.79-41.77,115.83-41.77,16.28,0,32.07,2.14,47.08,6.17,8.42,2.25,16.6,5.1,24.49,8.49Z"/>
  <path class="cls-1" d="M326.08,451.53c-18.82,6.6-39.06,10.2-60.14,10.2-58.06,0-109.75-27.26-142.97-69.69,18.83-6.6,39.07-10.2,60.15-10.2,58.06,0,109.75,27.26,142.96,69.69Z"/>
</svg>