<?xml version="1.0" encoding="UTF-8"?>
<svg id="Layer_1" data-name="Layer 1" xmlns="http://www.w3.org/2000/svg" viewBox="0 0 32 23.96">
  <defs>
    <style>
      .cls-1 {
        fill: #e05275;
        stroke-width: 0px;
      }
    </style>
  </defs>
  <path class="cls-1" d="M27.01,4.42s-.07,0-.1,0c-1.02-2.59-3.54-4.42-6.48-4.42-2.7,0-5.04,1.54-6.2,3.79-1.15-2.25-3.5-3.79-6.2-3.79C4.79,0,2.08,2.2,1.29,5.18c-.15.57-.23,1.17-.23,1.78h0c0,.24.02.48.05.72.47,3.52,4.26,6.87,7.64,9.2.55.38,1.09.73,1.6,1.05.65.41,1.25.76,1.78,1.07-.54.07-1.06.21-1.55.4-.52.2-1.01.46-1.46.77-1.3.9-2.28,2.23-2.74,3.79l2.81-1.38,3.12-1.53,1.9-.93.05-.02c.15-.07.63-.31,1.32-.69,1.4-.77,3.68-2.11,5.87-3.81,1.28-1,2.53-2.12,3.55-3.32,1.06-1.25,1.88-2.6,2.21-3.97,1.23-1.11,2.86-1.78,4.65-1.78.04,0,.09,0,.13,0-1.27-1.3-3.03-2.11-4.99-2.11ZM27.58,5.25h0s0,0,0,0h0Z"/>
  <path class="cls-1" d="M9.48,18.8c-.19.16-.4.31-.61.45-1.1.73-2.42,1.15-3.84,1.15-.98,0-1.9-.2-2.75-.56,1.21-1,2.76-1.6,4.44-1.6.62,0,1.23.08,1.81.24.32.09.64.2.94.33Z"/>
  <path class="cls-1" d="M7.79,17.31c-.72.25-1.5.39-2.31.39-2.23,0-4.21-1.05-5.49-2.67.72-.25,1.5-.39,2.31-.39,2.23,0,4.21,1.05,5.49,2.67Z"/>
</svg>