<?xml version="1.0" encoding="UTF-8"?>
<svg id="Layer_1" data-name="Layer 1" xmlns="http://www.w3.org/2000/svg" viewBox="0 0 128 25.04">
  <defs>
    <style>
      .cls-1 {
        fill: #e05275;
        stroke-width: 0px;
      }
    </style>
  </defs>
  <g>
    <path class="cls-1" d="M28.14,4.67s-.07,0-.11,0C26.97,1.98,24.35.07,21.28.07c-2.81,0-5.26,1.6-6.46,3.95C13.61,1.67,11.17.07,8.36.07,5,.07,2.17,2.36,1.34,5.47c-.16.59-.24,1.22-.24,1.86h0c0,.25.02.5.05.75.49,3.67,4.44,7.16,7.96,9.59.57.39,1.13.76,1.66,1.09.67.42,1.3.8,1.85,1.11-.56.08-1.1.22-1.61.41-.54.21-1.05.48-1.52.8-1.36.94-2.38,2.33-2.85,3.95l2.93-1.43,3.25-1.59,1.98-.97.05-.03c.16-.08.66-.33,1.38-.72,1.46-.8,3.84-2.2,6.11-3.97,1.34-1.04,2.64-2.21,3.7-3.46,1.11-1.31,1.95-2.7,2.3-4.14,1.28-1.15,2.98-1.85,4.84-1.85.05,0,.09,0,.14,0-1.32-1.36-3.16-2.2-5.2-2.2ZM28.74,5.54h0s0,0,0,0h0Z"/>
    <path class="cls-1" d="M9.87,19.66c-.2.17-.41.32-.63.47-1.15.76-2.52,1.2-4,1.2-1.02,0-1.98-.21-2.86-.59,1.26-1.04,2.87-1.67,4.63-1.67.65,0,1.28.09,1.88.25.34.09.66.2.98.34Z"/>
    <path class="cls-1" d="M8.12,18.11c-.75.26-1.56.41-2.4.41-2.32,0-4.39-1.09-5.72-2.79.75-.26,1.56-.41,2.4-.41,2.32,0,4.39,1.09,5.72,2.79Z"/>
  </g>
  <g>
    <path class="cls-1" d="M37.21,19.27V5.56h3.41l.18,3.41h-.27c.21-.84.52-1.53.94-2.06.41-.53.9-.92,1.45-1.18s1.14-.38,1.75-.38c.99,0,1.79.31,2.39.94.6.62,1.05,1.59,1.34,2.9h-.43c.2-.87.54-1.6,1-2.16.46-.57,1.01-.99,1.64-1.26s1.3-.41,1.99-.41c.84,0,1.59.18,2.25.55.66.37,1.18.9,1.56,1.59.38.69.57,1.53.57,2.53v9.24h-3.68v-8.54c0-.78-.21-1.35-.63-1.73-.42-.38-.94-.56-1.55-.56-.46,0-.86.1-1.2.3-.34.2-.6.48-.78.84-.18.36-.28.78-.28,1.26v8.43h-3.55v-8.64c0-.67-.2-1.2-.59-1.6s-.91-.59-1.54-.59c-.43,0-.82.1-1.17.29-.35.2-.62.48-.82.86-.2.38-.3.84-.3,1.39v8.29h-3.68Z"/>
    <path class="cls-1" d="M61.96,3.78c-.56,0-1.03-.18-1.42-.55-.39-.37-.59-.81-.59-1.34s.2-.97.59-1.34c.39-.37.87-.55,1.42-.55s1.03.18,1.43.55.59.81.59,1.34-.2.97-.59,1.34-.87.55-1.43.55ZM60.12,19.27V5.56h3.68v13.7h-3.68Z"/>
    <path class="cls-1" d="M70.75,19.54c-.87,0-1.64-.15-2.33-.46-.69-.31-1.23-.76-1.63-1.37-.4-.61-.59-1.37-.59-2.27,0-.76.14-1.4.42-1.91.28-.52.67-.93,1.15-1.24.49-.31,1.04-.55,1.65-.71s1.26-.28,1.94-.34c.79-.08,1.43-.16,1.92-.23.49-.07.84-.18,1.07-.33.23-.15.34-.37.34-.67v-.06c0-.39-.08-.72-.24-.99-.16-.27-.41-.48-.73-.62-.32-.14-.71-.21-1.17-.21s-.89.07-1.24.21c-.35.14-.64.33-.86.57-.22.24-.39.5-.49.8l-3.37-.55c.24-.8.63-1.48,1.18-2.03.55-.56,1.23-.98,2.04-1.27.81-.29,1.73-.44,2.75-.44.74,0,1.45.09,2.15.26.69.18,1.32.45,1.87.82.55.37.99.85,1.31,1.44.32.59.48,1.3.48,2.13v9.23h-3.48v-1.9h-.12c-.22.42-.51.8-.88,1.12-.37.32-.81.58-1.33.77-.52.19-1.12.28-1.8.28ZM71.79,16.95c.58,0,1.09-.11,1.53-.34s.78-.54,1.02-.93.37-.83.37-1.31v-1.48c-.11.08-.27.15-.49.22-.22.07-.47.12-.74.17-.27.05-.54.09-.8.14s-.49.07-.7.1c-.45.07-.85.17-1.19.32-.34.15-.61.34-.8.58-.19.24-.28.55-.28.93,0,.35.09.65.27.89s.42.42.74.54.67.18,1.07.18Z"/>
    <path class="cls-1" d="M81.5,19.27V5.56h3.41l.18,3.41h-.27c.21-.84.53-1.53.94-2.06s.9-.92,1.45-1.18,1.14-.38,1.75-.38c.99,0,1.78.31,2.39.94.6.62,1.05,1.59,1.34,2.9h-.43c.2-.87.54-1.6,1-2.16.46-.57,1.01-.99,1.64-1.26.63-.27,1.3-.41,1.99-.41.84,0,1.59.18,2.25.55s1.18.9,1.56,1.59.57,1.53.57,2.53v9.24h-3.68v-8.54c0-.78-.21-1.35-.63-1.73-.42-.38-.94-.56-1.55-.56-.46,0-.86.1-1.19.3-.34.2-.6.48-.78.84-.18.36-.28.78-.28,1.26v8.43h-3.55v-8.64c0-.67-.2-1.2-.59-1.6-.4-.4-.91-.59-1.54-.59-.43,0-.82.1-1.17.29-.35.2-.62.48-.82.86-.2.38-.3.84-.3,1.39v8.29h-3.68Z"/>
    <path class="cls-1" d="M110.53,19.54c-1.37,0-2.56-.3-3.57-.89s-1.78-1.42-2.32-2.48c-.54-1.06-.81-2.29-.81-3.7s.27-2.66.81-3.72c.54-1.06,1.32-1.88,2.32-2.48s2.19-.89,3.57-.89,2.57.3,3.57.89,1.77,1.42,2.32,2.48c.54,1.06.82,2.3.82,3.72s-.27,2.64-.82,3.7c-.54,1.06-1.32,1.88-2.32,2.48s-2.19.89-3.57.89ZM110.53,16.65c.65,0,1.2-.18,1.64-.55.44-.36.77-.86.99-1.49.22-.63.33-1.35.33-2.14s-.11-1.53-.33-2.16c-.22-.63-.55-1.12-.99-1.48-.44-.36-.99-.54-1.64-.54s-1.2.18-1.64.54c-.44.36-.77.85-.99,1.48-.22.63-.33,1.35-.33,2.16s.11,1.51.33,2.14c.22.63.55,1.13.99,1.49.44.36.98.55,1.64.55Z"/>
    <path class="cls-1" d="M119.8,19.27V5.56h3.55v2.39h.15c.25-.85.68-1.49,1.27-1.92.59-.43,1.27-.65,2.04-.65.19,0,.39.01.61.03.22.02.41.05.58.09v3.28c-.16-.06-.4-.1-.71-.13-.31-.03-.6-.05-.88-.05-.56,0-1.06.12-1.51.36s-.8.58-1.05,1c-.25.43-.37.93-.37,1.5v7.8h-3.68Z"/>
  </g>
</svg>